<svg width="77" height="77" viewBox="0 0 77 77" fill="none" xmlns="http://www.w3.org/2000/svg">
<path d="M38.9587 14.2835C33.8823 14.2835 28.9199 15.7888 24.699 18.6091C20.4782 21.4294 17.1884 25.438 15.2458 30.128C13.3031 34.8179 12.7948 39.9786 13.7852 44.9575C14.7755 49.9363 17.22 54.5097 20.8096 58.0992C24.3991 61.6888 28.9725 64.1333 33.9514 65.1237C38.9302 66.114 44.0909 65.6057 48.7809 63.6631C53.4708 61.7204 57.4794 58.4307 60.2997 54.2098C63.12 49.9889 64.6253 45.0266 64.6253 39.9502C64.6177 33.1453 61.9111 26.6213 57.0993 21.8095C52.2875 16.9978 45.7635 14.2912 38.9587 14.2835ZM38.9587 63.7835C34.2449 63.7835 29.637 62.3857 25.7176 59.7669C21.7982 57.148 18.7434 53.4258 16.9395 49.0708C15.1357 44.7158 14.6637 39.9237 15.5833 35.3005C16.5029 30.6773 18.7728 26.4306 22.106 23.0975C25.4391 19.7643 29.6858 17.4944 34.309 16.5748C38.9322 15.6552 43.7243 16.1272 48.0793 17.931C52.4343 19.7349 56.1565 22.7897 58.7754 26.7091C61.3942 30.6285 62.792 35.2364 62.792 39.9502C62.7848 46.269 60.2715 52.3269 55.8035 56.795C51.3354 61.2631 45.2775 63.7764 38.9587 63.7835Z" fill="#75D130"/>
<path d="M52.9826 28.2966L31.2906 49.6421L24.956 42.9848C24.7881 42.8103 24.5579 42.7094 24.3157 42.704C24.0736 42.6987 23.8392 42.7894 23.6638 42.9563C23.4883 43.1233 23.386 43.3529 23.3793 43.595C23.3725 43.837 23.4619 44.072 23.6278 44.2484L30.605 51.5817C30.6888 51.67 30.7894 51.7406 30.9008 51.7896C31.0122 51.8385 31.1323 51.8648 31.254 51.8668H31.2695C31.51 51.8667 31.7408 51.772 31.9121 51.6033L54.2678 29.6033C54.357 29.5197 54.4286 29.4191 54.4783 29.3075C54.5281 29.1958 54.555 29.0753 54.5575 28.9531C54.56 28.8309 54.538 28.7094 54.4929 28.5958C54.4477 28.4822 54.3803 28.3788 54.2946 28.2916C54.2089 28.2044 54.1066 28.1353 53.9937 28.0883C53.8809 28.0412 53.7598 28.0172 53.6376 28.0177C53.5153 28.0182 53.3944 28.0431 53.2819 28.091C53.1694 28.1389 53.0677 28.2088 52.9826 28.2966Z" fill="#2D4356"/>
<path d="M69.0806 67.3356H48.7031C55.1542 64.9422 60.5586 60.3572 63.9712 54.3824C67.3838 48.4076 68.5875 41.4233 67.3717 34.6508C66.1559 27.8784 62.598 21.7488 57.3202 17.3341C52.0424 12.9195 45.3806 10.5006 38.4999 10.5006C31.6192 10.5006 24.9574 12.9195 19.6796 17.3341C14.4019 21.7488 10.844 27.8784 9.62814 34.6508C8.41233 41.4233 9.61599 48.4076 13.0286 54.3824C16.4413 60.3572 21.8457 64.9422 28.2967 67.3356H7.91923C7.78882 67.3186 7.65628 67.3295 7.53046 67.3678C7.40463 67.4061 7.28842 67.4707 7.18958 67.5575C7.09075 67.6443 7.01156 67.7511 6.95731 67.8709C6.90306 67.9907 6.875 68.1207 6.875 68.2523C6.875 68.3838 6.90306 68.5138 6.95731 68.6336C7.01156 68.7534 7.09075 68.8602 7.18958 68.947C7.28842 69.0338 7.40463 69.0984 7.53046 69.1367C7.65628 69.175 7.78882 69.186 7.91923 69.1689H69.0806C69.211 69.186 69.3436 69.175 69.4694 69.1367C69.5952 69.0984 69.7114 69.0338 69.8102 68.947C69.9091 68.8602 69.9883 68.7534 70.0425 68.6336C70.0968 68.5138 70.1248 68.3838 70.1248 68.2523C70.1248 68.1207 70.0968 67.9907 70.0425 67.8709C69.9883 67.7511 69.9091 67.6443 69.8102 67.5575C69.7114 67.4707 69.5952 67.4061 69.4694 67.3678C69.3436 67.3295 69.211 67.3186 69.0806 67.3356ZM11.0001 39.8356C11.0001 34.3966 12.613 29.0798 15.6347 24.5574C18.6565 20.0351 22.9514 16.5103 27.9764 14.4289C33.0013 12.3475 38.5307 11.8029 43.8651 12.864C49.1996 13.9251 54.0996 16.5442 57.9456 20.3902C61.7915 24.2361 64.4106 29.1361 65.4717 34.4706C66.5328 39.8051 65.9882 45.3344 63.9068 50.3594C61.8254 55.3844 58.3007 59.6793 53.7783 62.701C49.256 65.7227 43.9391 67.3356 38.5001 67.3356C31.2092 67.3273 24.2193 64.4274 19.0638 59.2719C13.9084 54.1165 11.0084 47.1265 11.0001 39.8356ZM40.5626 8.09601C40.8346 8.09601 41.1004 8.01536 41.3266 7.86428C41.5527 7.71319 41.7289 7.49844 41.833 7.24719C41.937 6.99595 41.9643 6.71948 41.9112 6.45276C41.8582 6.18603 41.7272 5.94103 41.5349 5.74873C41.3426 5.55644 41.0976 5.42548 40.8309 5.37243C40.5642 5.31937 40.2877 5.3466 40.0365 5.45067C39.7852 5.55474 39.5705 5.73098 39.4194 5.9571C39.2683 6.18321 39.1876 6.44906 39.1876 6.72101C39.188 7.08557 39.333 7.43509 39.5908 7.69287C39.8486 7.95066 40.1981 8.09564 40.5626 8.09601ZM40.5626 6.03351C40.6986 6.03351 40.8315 6.07383 40.9446 6.14937C41.0577 6.22491 41.1458 6.33229 41.1978 6.45791C41.2498 6.58353 41.2635 6.72177 41.2369 6.85513C41.2104 6.98849 41.1449 7.11099 41.0488 7.20714C40.9526 7.30329 40.8301 7.36877 40.6968 7.3953C40.5634 7.42182 40.4252 7.40821 40.2995 7.35617C40.1739 7.30414 40.0666 7.21602 39.991 7.10296C39.9155 6.9899 39.8751 6.85698 39.8751 6.72101C39.8753 6.53871 39.9477 6.36391 40.0766 6.235C40.2055 6.1061 40.3803 6.03363 40.5626 6.03351ZM72.5566 31.1273C72.3753 31.1273 72.1981 31.181 72.0473 31.2817C71.8966 31.3825 71.7791 31.5256 71.7097 31.6931C71.6403 31.8606 71.6222 32.0449 71.6575 32.2228C71.6929 32.4006 71.7802 32.5639 71.9084 32.6921C72.0366 32.8203 72.2 32.9076 72.3778 32.943C72.5556 32.9783 72.7399 32.9602 72.9074 32.8908C73.0749 32.8214 73.2181 32.7039 73.3188 32.5532C73.4195 32.4024 73.4733 32.2252 73.4733 32.0439C73.473 31.8009 73.3764 31.5679 73.2045 31.396C73.0327 31.2242 72.7996 31.1275 72.5566 31.1273ZM72.5566 32.5023C72.466 32.5023 72.3773 32.4754 72.302 32.425C72.2266 32.3746 72.1678 32.3031 72.1332 32.2193C72.0985 32.1356 72.0894 32.0434 72.1071 31.9545C72.1248 31.8656 72.1684 31.7839 72.2325 31.7198C72.2966 31.6557 72.3783 31.6121 72.4672 31.5944C72.5561 31.5767 72.6482 31.5858 72.732 31.6205C72.8158 31.6552 72.8873 31.7139 72.9377 31.7893C72.9881 31.8647 73.0149 31.9533 73.0149 32.0439C73.0148 32.1654 72.9665 32.2819 72.8806 32.3679C72.7946 32.4538 72.6781 32.5021 72.5566 32.5023ZM59.5835 1.64084C59.4022 1.64084 59.2249 1.6946 59.0742 1.79532C58.9235 1.89605 58.806 2.03921 58.7366 2.20671C58.6672 2.37421 58.6491 2.55852 58.6844 2.73634C58.7198 2.91415 58.8071 3.07749 58.9353 3.20569C59.0635 3.33388 59.2268 3.42119 59.4046 3.45656C59.5825 3.49193 59.7668 3.47378 59.9343 3.40439C60.1018 3.33501 60.2449 3.21752 60.3457 3.06678C60.4464 2.91603 60.5001 2.7388 60.5001 2.55751C60.4999 2.31446 60.4033 2.08145 60.2314 1.90959C60.0595 1.73774 59.8265 1.64108 59.5835 1.64084ZM59.5835 3.01584C59.4928 3.01584 59.4042 2.98896 59.3288 2.9386C59.2535 2.88823 59.1947 2.81665 59.16 2.7329C59.1253 2.64915 59.1163 2.557 59.1339 2.46809C59.1516 2.37918 59.1953 2.29751 59.2594 2.23341C59.3235 2.16932 59.4052 2.12566 59.4941 2.10798C59.583 2.09029 59.6751 2.09937 59.7589 2.13406C59.8426 2.16875 59.9142 2.2275 59.9646 2.30287C60.0149 2.37824 60.0418 2.46686 60.0418 2.55751C60.0417 2.67903 59.9934 2.79553 59.9074 2.88146C59.8215 2.96739 59.705 3.01572 59.5835 3.01584ZM73.9444 6.98821C73.7631 6.98821 73.5859 7.04198 73.4352 7.1427C73.2844 7.24342 73.1669 7.38659 73.0975 7.55409C73.0282 7.72159 73.01 7.9059 73.0454 8.08371C73.0807 8.26153 73.1681 8.42486 73.2963 8.55306C73.4245 8.68126 73.5878 8.76856 73.7656 8.80393C73.9434 8.8393 74.1277 8.82115 74.2952 8.75177C74.4627 8.68239 74.6059 8.5649 74.7066 8.41415C74.8073 8.26341 74.8611 8.08618 74.8611 7.90488C74.8609 7.66184 74.7642 7.42882 74.5923 7.25697C74.4205 7.08511 74.1875 6.98846 73.9444 6.98821ZM73.9444 8.36321C73.8538 8.36321 73.7652 8.33633 73.6898 8.28597C73.6144 8.23561 73.5557 8.16403 73.521 8.08028C73.4863 7.99653 73.4772 7.90437 73.4949 7.81546C73.5126 7.72656 73.5563 7.64489 73.6203 7.58079C73.6844 7.51669 73.7661 7.47304 73.855 7.45535C73.9439 7.43767 74.0361 7.44675 74.1198 7.48144C74.2036 7.51613 74.2752 7.57487 74.3255 7.65024C74.3759 7.72562 74.4028 7.81423 74.4028 7.90488C74.4026 8.0264 74.3543 8.14291 74.2684 8.22884C74.1825 8.31476 74.066 8.36309 73.9444 8.36321ZM13.8899 14.0158C13.8899 13.8345 13.8362 13.6573 13.7355 13.5066C13.6347 13.3558 13.4916 13.2383 13.3241 13.1689C13.1566 13.0996 12.9723 13.0814 12.7944 13.1168C12.6166 13.1522 12.4533 13.2395 12.3251 13.3677C12.1969 13.4959 12.1096 13.6592 12.0742 13.837C12.0388 14.0148 12.057 14.1991 12.1264 14.3666C12.1958 14.5341 12.3133 14.6773 12.464 14.778C12.6147 14.8787 12.792 14.9325 12.9733 14.9325C13.2163 14.9323 13.4493 14.8356 13.6212 14.6638C13.793 14.4919 13.8897 14.2589 13.8899 14.0158ZM12.5149 14.0158C12.5149 13.9252 12.5418 13.8366 12.5922 13.7612C12.6425 13.6858 12.7141 13.6271 12.7979 13.5924C12.8816 13.5577 12.9738 13.5486 13.0627 13.5663C13.1516 13.584 13.2333 13.6276 13.2974 13.6917C13.3615 13.7558 13.4051 13.8375 13.4228 13.9264C13.4405 14.0153 13.4314 14.1075 13.3967 14.1912C13.362 14.275 13.3033 14.3466 13.2279 14.3969C13.1525 14.4473 13.0639 14.4742 12.9733 14.4742C12.8518 14.4741 12.7352 14.4257 12.6493 14.3398C12.5634 14.2539 12.5151 14.1374 12.5149 14.0158Z" fill="#2D4356"/>
<path d="M4.9908 31.1323L5.67234 30.2358L5.24197 29.992L4.80426 30.9957H4.79005L4.34547 29.9993L3.90776 30.25L4.58197 31.1254V31.1396L3.52734 31.0031V31.4907L4.58884 31.3546V31.3688L3.90776 32.2438L4.31614 32.5023L4.78272 31.4907H4.79693L5.2273 32.4949L5.67922 32.2369L4.9908 31.3761V31.3615L6.07339 31.4907V31.0031L4.9908 31.1465V31.1323ZM5.57472 2.8591L5.18239 3.3628L5.41751 3.51176L5.68609 2.92922H5.69434L5.9423 3.50764L6.20264 3.35868L5.80618 2.86322V2.85497L6.42951 2.92922V2.64826L5.80618 2.73122V2.72297L6.19851 2.20643L5.95055 2.06618L5.69893 2.64414H5.69022L5.43447 2.0703L5.18239 2.21468L5.57059 2.71885V2.7271L4.9633 2.64826V2.92922L5.57472 2.85085V2.8591ZM29.9319 2.88476V2.40626L28.87 2.54697V2.53276L29.5382 1.65368L29.1161 1.41443L28.6871 2.39939H28.6729L28.237 1.4213L27.8076 1.66789L28.4689 2.52589V2.5401L27.4345 2.40626V2.88476L28.4758 2.75093V2.76514L27.8076 3.62314L28.2086 3.8766L28.666 2.88476H28.6798L29.1019 3.86926L29.5451 3.61626L28.87 2.77201V2.7578L29.9319 2.88476ZM63.6437 16.4262L64.2203 15.6677L63.8559 15.4614L63.4861 16.3107H63.4737L63.0978 15.4674L62.7271 15.6796L63.2977 16.4203V16.4322L62.4058 16.3167V16.7292L63.3036 16.6141V16.6265L62.7271 17.3663L63.0731 17.5849L63.4677 16.7292H63.4796L63.8436 17.5789L64.2263 17.3603L63.6437 16.6325V16.6201L64.5595 16.7292V16.3167L63.6437 16.4381V16.4262Z" fill="#75D130"/>
<path d="M0.916667 69.1689C1.42293 69.1689 1.83333 68.7585 1.83333 68.2522C1.83333 67.746 1.42293 67.3356 0.916667 67.3356C0.410406 67.3356 0 67.746 0 68.2522C0 68.7585 0.410406 69.1689 0.916667 69.1689Z" fill="#2D4356"/>
<path d="M5.04167 67.3356H3.66667C3.42355 67.3356 3.19039 67.4321 3.01849 67.6041C2.84658 67.776 2.75 68.0091 2.75 68.2522C2.75 68.4954 2.84658 68.7285 3.01849 68.9004C3.19039 69.0723 3.42355 69.1689 3.66667 69.1689H5.04167C5.28478 69.1689 5.51794 69.0723 5.68985 68.9004C5.86176 68.7285 5.95833 68.4954 5.95833 68.2522C5.95833 68.0091 5.86176 67.776 5.68985 67.6041C5.51794 67.4321 5.28478 67.3356 5.04167 67.3356ZM73.3333 67.3356H71.9583C71.7152 67.3356 71.4821 67.4321 71.3102 67.6041C71.1382 67.776 71.0417 68.0091 71.0417 68.2522C71.0417 68.4954 71.1382 68.7285 71.3102 68.9004C71.4821 69.0723 71.7152 69.1689 71.9583 69.1689H73.3333C73.5764 69.1689 73.8096 69.0723 73.9815 68.9004C74.1534 68.7285 74.25 68.4954 74.25 68.2522C74.25 68.0091 74.1534 67.776 73.9815 67.6041C73.8096 67.4321 73.5764 67.3356 73.3333 67.3356Z" fill="#2D4356"/>
<path d="M76.0837 69.1689C76.5899 69.1689 77.0003 68.7585 77.0003 68.2522C77.0003 67.746 76.5899 67.3356 76.0837 67.3356C75.5774 67.3356 75.167 67.746 75.167 68.2522C75.167 68.7585 75.5774 69.1689 76.0837 69.1689Z" fill="#2D4356"/>
<path d="M54.1542 71.0023H50.3464C50.1156 71.0202 49.9 71.1245 49.7427 71.2944C49.5854 71.4644 49.498 71.6874 49.498 71.9189C49.498 72.1505 49.5854 72.3735 49.7427 72.5434C49.9 72.7134 50.1156 72.8177 50.3464 72.8356H54.1542C54.3851 72.8177 54.6007 72.7134 54.758 72.5434C54.9152 72.3735 55.0026 72.1505 55.0026 71.9189C55.0026 71.6874 54.9152 71.4644 54.758 71.2944C54.6007 71.1245 54.3851 71.0202 54.1542 71.0023ZM26.6542 71.0023H22.8464C22.6156 71.0202 22.4 71.1245 22.2427 71.2944C22.0854 71.4644 21.998 71.6874 21.998 71.9189C21.998 72.1505 22.0854 72.3735 22.2427 72.5434C22.4 72.7134 22.6156 72.8177 22.8464 72.8356H26.6542C26.8851 72.8177 27.1007 72.7134 27.258 72.5434C27.4152 72.3735 27.5026 72.1505 27.5026 71.9189C27.5026 71.6874 27.4152 71.4644 27.258 71.2944C27.1007 71.1245 26.8851 71.0202 26.6542 71.0023ZM47.667 71.0023H29.3337C29.0905 71.0023 28.8574 71.0988 28.6855 71.2707C28.5136 71.4427 28.417 71.6758 28.417 71.9189C28.417 72.162 28.5136 72.3952 28.6855 72.5671C28.8574 72.739 29.0905 72.8356 29.3337 72.8356H36.6395V73.7523H33.0003C32.7572 73.7523 32.524 73.8488 32.3521 74.0207C32.1802 74.1927 32.0837 74.4258 32.0837 74.6689C32.0837 74.912 32.1802 75.1452 32.3521 75.3171C32.524 75.489 32.7572 75.5856 33.0003 75.5856H44.4587C44.7018 75.5856 44.9349 75.489 45.1068 75.3171C45.2787 75.1452 45.3753 74.912 45.3753 74.6689C45.3753 74.4258 45.2787 74.1927 45.1068 74.0207C44.9349 73.8488 44.7018 73.7523 44.4587 73.7523H40.3612V72.8356H47.667C47.9101 72.8356 48.1433 72.739 48.3152 72.5671C48.4871 72.3952 48.5837 72.162 48.5837 71.9189C48.5837 71.6758 48.4871 71.4427 48.3152 71.2707C48.1433 71.0988 47.9101 71.0023 47.667 71.0023Z" fill="#75D130"/>
</svg>
